
<svg width="220" height="60" viewBox="0 0 220 60" fill="none" xmlns="http://www.w3.org/2000/svg">
  <defs>
    <linearGradient id="gradBadge" x1="0" y1="0" x2="220" y2="60" gradientUnits="userSpaceOnUse">
      <stop offset="0" stop-color="#0f172a"/>
      <stop offset="1" stop-color="#020617"/>
    </linearGradient>
    <linearGradient id="gradOutline" x1="0" y1="0" x2="220" y2="60" gradientUnits="userSpaceOnUse">
      <stop offset="0" stop-color="#22d3ee"/>
      <stop offset="1" stop-color="#38bdf8"/>
    </linearGradient>
  </defs>
  <rect x="1.5" y="3" width="110" height="54" rx="12" fill="url(#gradBadge)" stroke="url(#gradOutline)" stroke-width="2"/>
  <path d="M20 32C23 22 30 17 40 17H70C77 17 83 20 87 26C89 29 90.5 32 91 34H82.5C81.5 32 79.5 30 76.5 29C73.5 28 69.5 28 64.5 28H52.5C44.5 28 40 30 37.5 34H19L20 32Z" fill="#0f172a" stroke="#22d3ee" stroke-width="1.3"/>
  <circle cx="33" cy="37" r="5.5" fill="#020617" stroke="#38bdf8" stroke-width="1.4"/>
  <circle cx="75" cy="37" r="5.5" fill="#020617" stroke="#38bdf8" stroke-width="1.4"/>
  <path d="M124 16H214" stroke="#38bdf8" stroke-width="2" stroke-linecap="round"/>
  <text x="124" y="32" fill="#e5e7eb" font-family="system-ui, -apple-system, BlinkMacSystemFont, 'Segoe UI', sans-serif" font-size="12" font-weight="600">
    Configurarea Mașinii
  </text>
  <text x="124" y="46" fill="#a5f3fc" font-family="system-ui, -apple-system, BlinkMacSystemFont, 'Segoe UI', sans-serif" font-size="11" font-weight="500">
    AC‑3 · AHP · TOPSIS
  </text>
</svg>
